<svg width="34" height="34" viewBox="0 0 34 34" fill="none" xmlns="http://www.w3.org/2000/svg">
<path fill-rule="evenodd" clip-rule="evenodd" d="M23.208 33.6668V20.7585H27.5413L28.1897 15.7285H23.2063V12.5168C23.2063 11.0602 23.6113 10.0668 25.7013 10.0668H28.3647V5.56683C27.0749 5.42825 25.7785 5.36148 24.4813 5.36683C20.6413 5.36683 18.013 7.71183 18.013 12.0168V15.7285H13.6663V20.7585H18.0113V33.6668H2.17301C1.15634 33.6668 0.333008 32.8435 0.333008 31.8268V2.1735C0.333008 1.15683 1.15634 0.333496 2.17301 0.333496H31.8263C32.843 0.333496 33.6663 1.15683 33.6663 2.1735V31.8268C33.6663 32.8435 32.843 33.6668 31.8263 33.6668H23.208Z" fill="#232C4F"/>
</svg>
