<svg width="38" height="38" viewBox="0 0 38 38" fill="none" xmlns="http://www.w3.org/2000/svg">
<path fill-rule="evenodd" clip-rule="evenodd" d="M11.442 0.776504C13.397 0.686504 14.0203 0.666504 19.0003 0.666504C23.9803 0.666504 24.6037 0.688171 26.557 0.776504C28.5103 0.864837 29.8437 1.1765 31.0103 1.62817C32.232 2.08984 33.3403 2.8115 34.257 3.74484C35.1903 4.65984 35.9103 5.7665 36.3703 6.98984C36.8237 8.1565 37.1337 9.48984 37.2237 11.4398C37.3137 13.3982 37.3337 14.0215 37.3337 18.9998C37.3337 23.9782 37.312 24.6032 37.2237 26.5582C37.1353 28.5082 36.8237 29.8415 36.3703 31.0082C35.9101 32.2316 35.189 33.34 34.257 34.2565C33.3403 35.1898 32.232 35.9098 31.0103 36.3698C29.8437 36.8232 28.5103 37.1332 26.5603 37.2232C24.6037 37.3132 23.9803 37.3332 19.0003 37.3332C14.0203 37.3332 13.397 37.3115 11.442 37.2232C9.49199 37.1348 8.15866 36.8232 6.99199 36.3698C5.7686 35.9096 4.66013 35.1885 3.74366 34.2565C2.81129 33.3407 2.08957 32.2328 1.62866 31.0098C1.17699 29.8432 0.866992 28.5098 0.776992 26.5598C0.686992 24.6015 0.666992 23.9782 0.666992 18.9998C0.666992 14.0215 0.688659 13.3965 0.776992 11.4432C0.865325 9.48984 1.17699 8.1565 1.62866 6.98984C2.09006 5.76674 2.81236 4.65883 3.74533 3.74317C4.66066 2.811 5.76797 2.08929 6.99032 1.62817C8.15699 1.1765 9.49199 0.866504 11.442 0.776504ZM26.407 4.0765C24.4737 3.98817 23.8937 3.96984 18.9987 3.96984C14.1037 3.96984 13.5237 3.98817 11.5903 4.0765C9.80199 4.15817 8.83199 4.4565 8.18533 4.70817C7.33033 5.0415 6.71866 5.4365 6.07699 6.07817C5.4682 6.66949 5.00001 7.39 4.70699 8.1865C4.45533 8.83317 4.15699 9.80317 4.07533 11.5915C3.98699 13.5248 3.96866 14.1048 3.96866 18.9998C3.96866 23.8948 3.98699 24.4748 4.07533 26.4082C4.15699 28.1965 4.45533 29.1665 4.70699 29.8132C5.00033 30.6082 5.46866 31.3298 6.07699 31.9215C6.66866 32.5298 7.39033 32.9982 8.18533 33.2915C8.83199 33.5432 9.80199 33.8415 11.5903 33.9232C13.5237 34.0115 14.102 34.0298 18.9987 34.0298C23.8953 34.0298 24.4737 34.0115 26.407 33.9232C28.1953 33.8415 29.1653 33.5432 29.812 33.2915C30.667 32.9582 31.2787 32.5632 31.9203 31.9215C32.5287 31.3298 32.997 30.6082 33.2903 29.8132C33.542 29.1665 33.8403 28.1965 33.922 26.4082C34.0103 24.4748 34.0287 23.8948 34.0287 18.9998C34.0287 14.1048 34.0103 13.5248 33.922 11.5915C33.8403 9.80317 33.542 8.83317 33.2903 8.1865C32.957 7.3315 32.562 6.71984 31.9203 6.07817C31.329 5.46938 30.6085 5.00119 29.812 4.70817C29.1653 4.4565 28.1953 4.15817 26.407 4.0765ZM16.657 24.6515C17.9648 25.1959 19.421 25.2694 20.7769 24.8594C22.1328 24.4494 23.3043 23.5814 24.0913 22.4036C24.8784 21.2258 25.2321 19.8113 25.0921 18.4017C24.9521 16.9921 24.327 15.6748 23.3237 14.6748C22.6841 14.0356 21.9107 13.5462 21.0592 13.2417C20.2077 12.9373 19.2994 12.8254 18.3995 12.9142C17.4996 13.003 16.6306 13.2901 15.855 13.7551C15.0794 14.22 14.4166 14.8511 13.9142 15.6029C13.4118 16.3548 13.0823 17.2087 12.9495 18.1031C12.8167 18.9976 12.8839 19.9103 13.1462 20.7757C13.4085 21.6411 13.8595 22.4375 14.4665 23.1077C15.0736 23.7779 15.8217 24.3051 16.657 24.6515ZM12.337 12.3365C13.212 11.4615 14.2509 10.7673 15.3942 10.2938C16.5375 9.8202 17.7628 9.57646 19.0003 9.57646C20.2378 9.57646 21.4632 9.8202 22.6065 10.2938C23.7498 10.7673 24.7886 11.4615 25.6637 12.3365C26.5387 13.2115 27.2328 14.2504 27.7064 15.3937C28.18 16.537 28.4237 17.7623 28.4237 18.9998C28.4237 20.2373 28.18 21.4627 27.7064 22.606C27.2328 23.7493 26.5387 24.7881 25.6637 25.6632C23.8964 27.4304 21.4996 28.4232 19.0003 28.4232C16.5011 28.4232 14.1042 27.4304 12.337 25.6632C10.5698 23.8959 9.57695 21.4991 9.57695 18.9998C9.57695 16.5006 10.5698 14.1037 12.337 12.3365ZM30.5137 10.9798C30.7305 10.7753 30.9041 10.5293 31.0242 10.2565C31.1442 9.98361 31.2083 9.68945 31.2127 9.39139C31.217 9.09332 31.1615 8.79742 31.0495 8.52119C30.9374 8.24496 30.771 7.99402 30.5603 7.78324C30.3495 7.57245 30.0985 7.4061 29.8223 7.29403C29.5461 7.18197 29.2502 7.12646 28.9521 7.13081C28.654 7.13515 28.3599 7.19926 28.087 7.31933C27.8142 7.4394 27.5682 7.613 27.3637 7.82984C26.9658 8.25155 26.748 8.81171 26.7565 9.39139C26.7649 9.97107 26.999 10.5246 27.4089 10.9346C27.8189 11.3445 28.3724 11.5786 28.9521 11.587C29.5318 11.5955 30.0919 11.3777 30.5137 10.9798Z" fill="#232C4F"/>
</svg>
